<?xml version="1.0" encoding="utf-8"?>
<!-- Generator: Adobe Illustrator 24.0.0, SVG Export Plug-In . SVG Version: 6.00 Build 0)  -->
<svg version="1.1" id="one_finger_quick_refresh" xmlns="http://www.w3.org/2000/svg" xmlns:xlink="http://www.w3.org/1999/xlink"
	 x="0px" y="0px" width="56.7px" height="56.7px" viewBox="0 0 56.7 56.7" style="enable-background:new 0 0 56.7 56.7;"
	 xml:space="preserve">
<style type="text/css">
	.st0{fill-rule:evenodd;clip-rule:evenodd;}
</style>
<g>
	<path class="st0" d="M13.8,12.8c0.1,0,0.2,0.1,0.3,0.2c0.1,0.1,0.2,0.2,0.3,0.3v0c0.5,0.4,1,0.7,1.6,0.7c0.6,0,1.2-0.2,1.6-0.7
		c0.1-0.1,0.2-0.2,0.3-0.3l-0.3-0.1c-0.1,0-0.2-0.1-0.3-0.2c-0.1-0.1-0.1-0.2-0.1-0.3c0-0.1,0.1-0.2,0.2-0.3l1.1-0.8
		c0,0,0.1-0.1,0.1-0.1l0,0c0,0,0,0,0,0l0.1,0c0,0,0,0,0,0c0.1,0,0.2,0.1,0.2,0.1l0,0c0,0,0,0,0,0.1l0.7,1.1c0.1,0.1,0.1,0.2,0.1,0.3
		c0,0.1-0.1,0.2-0.2,0.3c-0.1,0.1-0.2,0.1-0.3,0.1l-0.6-0.1c-0.1,0.3-0.4,0.5-0.6,0.8c-0.6,0.6-1.4,0.9-2.2,0.9
		c-0.9,0-1.6-0.3-2.2-0.9v0c-0.1-0.1-0.3-0.3-0.4-0.4c-0.1-0.1-0.1-0.2-0.1-0.3c0-0.1,0.1-0.2,0.2-0.3
		C13.6,12.8,13.7,12.8,13.8,12.8z M18.7,10c0.1,0.1,0.1,0.2,0.1,0.3c0,0.1-0.1,0.2-0.2,0.3c-0.1,0.1-0.2,0.1-0.3,0.1
		c-0.1,0-0.2-0.1-0.3-0.2c-0.1-0.1-0.2-0.3-0.3-0.4c-0.5-0.4-1-0.7-1.6-0.7c-0.6,0-1.2,0.2-1.6,0.7c-0.1,0.1-0.2,0.2-0.3,0.3
		l0.3,0.1c0.1,0,0.2,0.1,0.3,0.2c0.1,0.1,0.1,0.2,0.1,0.3c0,0.1-0.1,0.2-0.2,0.3l-1.1,0.8c-0.1,0-0.1,0.1-0.2,0.1h-0.1
		c-0.1,0-0.1,0-0.2,0c0,0-0.1,0-0.1-0.1h0v0c0,0-0.1-0.1-0.1-0.1l-0.7-1.1c-0.1-0.1-0.1-0.2-0.1-0.3c0-0.1,0.1-0.2,0.2-0.3
		c0.1-0.1,0.2-0.1,0.3-0.1l0.6,0.1c0.2-0.3,0.3-0.6,0.6-0.8c0.6-0.6,1.4-0.9,2.3-0.9c0.9,0,1.6,0.3,2.2,0.9
		C18.4,9.7,18.6,9.8,18.7,10z M38.3,24.5c0-0.4-0.2-0.8-0.5-1.1c-0.3-0.3-0.7-0.4-1.2-0.4h-0.1c-0.2,0-0.5,0.1-0.7,0.2v2.2h0v4.1
		c0,0.3-0.1,0.5-0.4,0.7c-0.2,0.2-0.4,0.3-0.7,0.3c-0.3,0-0.5-0.1-0.7-0.3c-0.2-0.2-0.3-0.4-0.3-0.7l0-6.7c0-0.4-0.2-0.8-0.5-1.1
		c-0.3-0.3-0.7-0.5-1.1-0.5c-0.3,0-0.5,0.1-0.8,0.2v8.1c0,0.3-0.1,0.5-0.4,0.7c-0.2,0.2-0.4,0.3-0.7,0.3c-0.3,0-0.5-0.1-0.7-0.3
		c-0.2-0.2-0.3-0.4-0.3-0.7V13.3c0-0.4-0.2-0.8-0.5-1.1c-0.1-0.1-0.3-0.2-0.4-0.3c-0.2-0.1-0.5-0.2-0.7-0.2c-0.5,0-0.9,0.2-1.2,0.5
		c-0.3,0.3-0.4,0.7-0.4,1.1v18.8c0,0.3-0.1,0.5-0.4,0.7c-0.2,0.2-0.4,0.3-0.7,0.3c-0.3,0-0.5-0.1-0.7-0.3c-0.2-0.2-0.3-0.4-0.3-0.7
		v-7.6c-0.2-0.1-0.4-0.2-0.6-0.3c-0.1,0-0.3-0.1-0.4-0.1c-0.2,0-0.3,0-0.5,0.1c-0.3,0.1-0.5,0.2-0.7,0.4c-0.3,0.3-0.5,0.7-0.5,1.1
		V33c0,3.4,1.1,5.8,3.1,7.2c2.1,1.3,3.3,3.1,3.7,5.2c0,0.2,0.1,0.4,0.1,0.6c0,0.1,0,0.1,0,0.2h8.4l0-0.2c0.1-1.8,0.7-3.5,2-5.1
		c1.4-1.6,2.3-2.8,2.8-3.5c0.5-0.6,0.8-1.9,0.9-3.8c0.2-2.2,0.2-3.8,0.2-5c0-0.9-0.2-1.6-0.5-2c-0.3-0.4-0.7-0.5-1.1-0.5
		c-0.3,0-0.5,0.1-0.7,0.2v3.1c0,0.3-0.1,0.5-0.4,0.7c-0.2,0.2-0.4,0.3-0.7,0.3c-0.3,0-0.5-0.1-0.7-0.3c-0.2-0.2-0.3-0.4-0.3-0.7
		V24.5z M41,24.1c1,0,1.9,0.4,2.6,1.2c0.6,0.7,1,1.8,1,3.2c0,1.2-0.1,2.9-0.2,5.2c-0.2,2.4-0.6,4.1-1.2,4.9c-0.6,0.8-1.6,2-2.9,3.7
		c-0.8,1-1.3,2.1-1.5,3.5c0,0.1,0,0.2,0,0.2c-0.1,0.4-0.1,0.7-0.1,1.1c0,0.2,0,0.3-0.1,0.5c-0.1,0.2-0.3,0.3-0.4,0.4
		c-0.2,0.1-0.3,0.1-0.5,0.1H27.4c-0.2,0-0.3,0-0.5-0.1c-0.2-0.1-0.3-0.2-0.4-0.4c-0.1-0.2-0.1-0.3-0.1-0.5c0-0.4,0-0.8-0.1-1.2
		c0-0.2-0.1-0.4-0.1-0.6c-0.4-1.4-1.3-2.6-2.7-3.5c-2.6-1.7-4-4.6-4-8.9v-7.3c0-0.6,0.1-1.1,0.3-1.6c0.2-0.3,0.4-0.7,0.7-1
		c0.7-0.8,1.6-1.1,2.6-1.1c0.3,0,0.7,0.1,1,0.2v-8.9c0-1,0.4-1.9,1.1-2.6c0.7-0.7,1.5-1.1,2.6-1.1c0.2,0,0.5,0,0.7,0.1
		c0.7,0.1,1.3,0.5,1.8,1c0.7,0.7,1.1,1.6,1.1,2.6v5.8c0.2-0.1,0.5-0.1,0.8-0.1c1,0,1.9,0.4,2.6,1.1c0.3,0.3,0.5,0.6,0.7,1
		c0,0,0.1,0,0.1-0.1c0.3-0.1,0.6-0.1,0.9-0.1c0,0,0.1,0,0.1,0c1,0,1.9,0.4,2.6,1.1c0.6,0.6,1,1.4,1.1,2.2
		C40.5,24.1,40.8,24.1,41,24.1z"/>
</g>
</svg>
