<?xml version="1.0" encoding="utf-8"?>
<!-- Generator: Adobe Illustrator 24.0.0, SVG Export Plug-In . SVG Version: 6.00 Build 0)  -->
<svg version="1.1" id="pinch_in" xmlns="http://www.w3.org/2000/svg" xmlns:xlink="http://www.w3.org/1999/xlink" x="0px" y="0px"
	 width="56.7px" height="56.7px" viewBox="0 0 56.7 56.7" style="enable-background:new 0 0 56.7 56.7;" xml:space="preserve">
<style type="text/css">
	.st0{fill-rule:evenodd;clip-rule:evenodd;}
</style>
<g>
	<path class="st0" d="M24.1,6.9c0,0.2-0.1,0.5-0.3,0.6l-3,3l1.3,1.3c0.2,0.2,0.3,0.4,0.3,0.6c0,0.2-0.1,0.5-0.3,0.6
		c-0.2,0.2-0.4,0.3-0.6,0.3l-3.8,0c-0.2,0-0.5-0.1-0.6-0.3c-0.2-0.2-0.3-0.4-0.3-0.6V8.7c0-0.2,0.1-0.4,0.3-0.6
		c0.2-0.2,0.4-0.3,0.6-0.3c0.2,0,0.4,0.1,0.6,0.3l1.3,1.3l3-3C22.7,6.1,22.9,6,23.2,6c0.2,0,0.4,0.1,0.6,0.3
		C24,6.5,24.1,6.7,24.1,6.9z M34.3,23.1c-0.3,0.1-0.5,0.3-0.7,0.6c-0.2,0.4-0.3,0.8-0.2,1.2l0.2,0.8l1.7,5.5c0.1,0.3,0,0.5-0.1,0.8
		c-0.1,0.2-0.3,0.4-0.5,0.5c-0.3,0.1-0.5,0.1-0.8-0.1c-0.2-0.1-0.4-0.3-0.5-0.6l-4.6-15.4c-0.1-0.2-0.2-0.4-0.3-0.6
		c-0.1-0.1-0.3-0.3-0.5-0.4c-0.4-0.2-0.8-0.3-1.2-0.1c-0.5,0.1-0.8,0.4-1,0.8c-0.2,0.4-0.2,0.8-0.1,1.2l5.4,18
		c0.1,0.3,0,0.5-0.1,0.8c-0.1,0.2-0.3,0.4-0.6,0.5c-0.3,0.1-0.5,0.1-0.8-0.1c-0.1-0.1-0.3-0.2-0.4-0.3l-5.5-4.4
		c-0.5-0.4-1-0.6-1.5-0.6c-0.4,0-0.8,0.1-1.2,0.4c-0.4,0.3-0.5,0.7-0.5,1.2c0,0.4,0.2,0.8,0.5,1.1l5.6,5.9c1.5,1.7,2.8,2.8,3.9,3.3
		c2.3,0.9,3.8,2.4,4.5,4.5c0.1,0.4,0.2,0.8,0.2,1.1h8.3c-0.1-3.4,0.3-5.8,1.1-7.3c1.1-1.8,1.8-3.1,2.2-4c0.4-0.7,0.4-2,0.2-3.9
		c-0.2-2.2-0.4-3.8-0.6-5c-0.2-0.9-0.5-1.5-0.8-1.9c-0.3-0.3-0.7-0.4-1.2-0.3c-0.3,0.1-0.5,0.2-0.7,0.3l0.5,3c0,0.3,0,0.5-0.2,0.8
		c-0.2,0.2-0.4,0.4-0.6,0.4c-0.3,0.1-0.5,0-0.8-0.2c-0.2-0.2-0.4-0.4-0.4-0.7l-0.8-4.8c-0.1-0.4-0.3-0.8-0.7-1
		c-0.4-0.2-0.8-0.3-1.3-0.2l-0.1,0c-0.2,0-0.4,0.1-0.6,0.3l1.1,6.2c0,0.3,0,0.5-0.2,0.8c-0.2,0.2-0.4,0.3-0.6,0.4
		c-0.3,0.1-0.5,0-0.8-0.2c-0.2-0.2-0.4-0.4-0.4-0.7l-1.2-6.6c-0.1-0.4-0.3-0.8-0.6-1c-0.3-0.3-0.7-0.4-1.2-0.3c0,0,0,0,0,0h0l-0.1,0
		C34.5,23,34.4,23,34.3,23.1L34.3,23.1z M32.4,21.9c0.5-0.5,1.2-0.9,1.9-1c1-0.2,1.9,0,2.7,0.6c0.3,0.2,0.6,0.5,0.9,0.8
		c0,0,0.1,0,0.1-0.1c0.3-0.1,0.5-0.2,0.9-0.3c0,0,0.1,0,0.1,0c1-0.2,1.9,0,2.7,0.6c0.7,0.5,1.2,1.2,1.5,1.9c0.2-0.1,0.4-0.1,0.7-0.2
		c1-0.2,2,0.1,2.8,0.8c0.7,0.6,1.2,1.6,1.5,3c0.2,1.2,0.4,2.9,0.6,5.1c0.3,2.4,0.1,4.1-0.3,5.1c-0.5,0.8-1.2,2.2-2.2,4.1
		c-0.6,1-0.8,3.3-0.8,7c0,0.1,0,0.2,0,0.2c0,0.2,0,0.3-0.1,0.5c-0.1,0.2-0.3,0.3-0.4,0.4c-0.2,0.1-0.3,0.1-0.5,0.1H34.1
		c-0.2,0-0.3,0-0.5-0.1c-0.2-0.1-0.3-0.2-0.4-0.4c-0.1-0.2-0.1-0.3-0.1-0.5c0-0.4,0-0.8-0.1-1.2c0-0.2-0.1-0.4-0.1-0.6
		c0,0,0,0,0-0.1c-0.6-1.3-1.7-2.3-3.3-3c-1.4-0.6-2.7-1.6-3.9-3.1l-6.3-6.6c-0.7-0.7-1-1.6-1-2.6c0-1,0.4-1.9,1.1-2.6
		c0.7-0.7,1.6-1,2.6-1c1,0,2.2,0.5,3.5,1.6c0.7,0.6,1.5,1.1,2.2,1.7l-4.4-14.6c0,0,0-0.1,0-0.1h0c-0.2-0.9-0.1-1.8,0.3-2.7
		c0.5-0.9,1.2-1.5,2.2-1.8c0.8-0.2,1.5-0.2,2.3,0.1c0.2,0.1,0.4,0.1,0.5,0.2c0.9,0.5,1.5,1.2,1.7,2.2L32.4,21.9z M14.8,15.3
		c0.2,0.2,0.3,0.4,0.3,0.7v3.8c0,0.2-0.1,0.4-0.3,0.6c-0.2,0.2-0.4,0.3-0.6,0.3c-0.2,0-0.5-0.1-0.6-0.3l-1.3-1.3l-3,3
		c-0.2,0.2-0.4,0.3-0.6,0.3c-0.2,0-0.5-0.1-0.6-0.3c-0.2-0.2-0.3-0.4-0.3-0.6c0-0.3,0.1-0.5,0.3-0.7l3-3l-1.3-1.3
		c-0.2-0.2-0.3-0.4-0.3-0.6c0-0.2,0.1-0.5,0.3-0.6c0.2-0.2,0.4-0.3,0.6-0.3l3.8,0C14.4,15,14.6,15.1,14.8,15.3z"/>
</g>
</svg>
